<svg xmlns="http://www.w3.org/2000/svg" width="135" height="40" viewBox="0 0 135 40"><path d="M130.197 40H4.73A4.739 4.739 0 0 1 0 35.267V4.727A4.734 4.734 0 0 1 4.73 0h125.467C132.803 0 135 2.12 135 4.726v30.54c0 2.606-2.197 4.734-4.803 4.734z"/><path d="M30.128 19.784c-.03-3.223 2.64-4.79 2.76-4.864-1.51-2.203-3.852-2.504-4.675-2.528-1.967-.207-3.875 1.177-4.877 1.177-1.022 0-2.565-1.16-4.228-1.13-2.14.03-4.142 1.27-5.24 3.193-2.266 3.923-.576 9.69 1.595 12.86 1.086 1.552 2.355 3.286 4.016 3.225 1.62-.067 2.23-1.036 4.19-1.036 1.94 0 2.51 1.036 4.2.997 1.743-.028 2.84-1.56 3.89-3.127 1.254-1.78 1.76-3.53 1.78-3.62-.04-.014-3.388-1.29-3.42-5.154zm-3.2-9.478c.874-1.093 1.472-2.58 1.306-4.09-1.265.057-2.847.876-3.758 1.945-.806.95-1.526 2.49-1.34 3.94 1.42.11 2.88-.71 3.792-1.79zm26.717 21.198h-2.27l-1.245-3.91h-4.324l-1.185 3.91h-2.21l4.29-13.308h2.65l4.306 13.308zm-3.89-5.55L48.63 22.48c-.12-.355-.342-1.19-.67-2.507h-.04c-.132.566-.343 1.402-.633 2.507l-1.105 3.475h3.573zm14.907.634c0 1.632-.44 2.922-1.323 3.87-.79.842-1.78 1.263-2.95 1.263-1.266 0-2.17-.45-2.727-1.36h-.04v5.06H55.5V25.07c0-1.026-.027-2.08-.08-3.16h1.876l.12 1.522h.04c.71-1.15 1.79-1.72 3.237-1.72 1.132 0 2.077.447 2.833 1.34.758.898 1.136 2.076 1.136 3.537zm-2.172.078c0-.934-.21-1.704-.632-2.31-.46-.632-1.08-.948-1.856-.948-.526 0-1.004.176-1.43.523-.43.35-.71.81-.84 1.38-.066.267-.1.48-.1.65v1.6c0 .7.215 1.29.643 1.77s.984.72 1.668.72c.803 0 1.428-.31 1.875-.926.448-.62.672-1.435.672-2.45zm13.21-.078c0 1.632-.442 2.922-1.325 3.87-.79.842-1.77 1.263-2.94 1.263-1.265 0-2.173-.45-2.725-1.36h-.04v5.06h-2.132V25.07c0-1.026-.027-2.08-.08-3.16h1.876l.12 1.522h.04c.71-1.15 1.788-1.72 3.237-1.72 1.14 0 2.08.447 2.84 1.34.76.898 1.138 2.076 1.138 3.537zm-2.173.078c0-.934-.21-1.704-.633-2.31-.46-.632-1.078-.948-1.855-.948-.53 0-1.01.176-1.44.523-.43.35-.71.81-.84 1.38-.066.267-.1.48-.1.65v1.6c0 .7.214 1.29.64 1.77.43.48.984.72 1.67.72.803 0 1.43-.31 1.875-.926.45-.62.672-1.435.672-2.45zm14.513 1.106c0 1.132-.394 2.053-1.183 2.764-.867.777-2.074 1.165-3.625 1.165-1.432 0-2.58-.27-3.45-.82l.495-1.776c.936.566 1.963.85 3.082.85.8 0 1.42-.182 1.87-.544.444-.36.67-.848.67-1.454 0-.54-.187-.995-.556-1.364-.367-.37-.98-.712-1.836-1.03-2.33-.87-3.494-2.14-3.494-3.815 0-1.093.41-1.99 1.227-2.69.815-.697 1.9-1.046 3.26-1.046 1.21 0 2.217.21 3.02.634l-.533 1.74c-.75-.408-1.6-.61-2.548-.61-.75 0-1.337.183-1.757.55a1.58 1.58 0 0 0-.534 1.206c0 .527.202.96.61 1.304.355.317 1 .66 1.936 1.028 1.146.46 1.987 1 2.53 1.62.54.616.81 1.387.81 2.307zm7.048-4.264h-2.35v4.66c0 1.184.414 1.776 1.244 1.776.38 0 .697-.033.947-.1l.05 1.62c-.42.157-.974.236-1.66.236-.842 0-1.5-.257-1.975-.77-.473-.514-.71-1.376-.71-2.587v-4.837h-1.4v-1.6h1.4V20.15l2.093-.633v2.39h2.35v1.6zm10.602 3.12c0 1.474-.42 2.685-1.263 3.632-.883.975-2.055 1.46-3.516 1.46-1.4 0-2.52-.466-3.36-1.4s-1.25-2.113-1.25-3.534c0-1.487.43-2.705 1.295-3.652.86-.948 2.023-1.422 3.484-1.422 1.407 0 2.54.467 3.395 1.402.816.907 1.224 2.078 1.224 3.513zm-2.21.07c0-.887-.19-1.646-.573-2.28-.447-.766-1.086-1.15-1.914-1.15-.857 0-1.508.385-1.955 1.15-.383.634-.572 1.405-.572 2.317 0 .885.19 1.644.572 2.276.46.77 1.105 1.15 1.936 1.15.814 0 1.453-.39 1.914-1.17.393-.64.59-1.41.59-2.29zm9.14-2.915c-.21-.04-.435-.06-.67-.06-.75 0-1.33.284-1.74.85-.354.5-.532 1.133-.532 1.896v5.03h-2.13l.02-6.58a52.97 52.97 0 0 0-.08-3.02h1.856l.078 1.834h.06c.224-.63.58-1.14 1.065-1.52a2.572 2.572 0 0 1 1.54-.515c.198 0 .376.015.534.04v2.033zm9.536 2.47c0 .38-.025.703-.078.966h-6.396c.025.94.334 1.67.928 2.17.54.44 1.236.67 2.092.67.947 0 1.81-.15 2.588-.46l.334 1.48c-.908.395-1.98.592-3.217.592-1.488 0-2.656-.44-3.506-1.314-.84-.876-1.27-2.05-1.27-3.525 0-1.447.4-2.65 1.19-3.613.83-1.027 1.95-1.54 3.358-1.54 1.383 0 2.43.513 3.14 1.54.564.814.847 1.822.847 3.02zm-2.033-.554c.014-.64-.125-1.18-.414-1.64-.37-.6-.94-.89-1.7-.89-.7 0-1.27.29-1.7.87-.36.46-.57 1.01-.63 1.65h4.44zM49.05 10.01c0 1.176-.353 2.062-1.058 2.657-.653.55-1.58.824-2.783.824-.6 0-1.11-.02-1.54-.07V6.99c.554-.09 1.154-.138 1.802-.138 1.145 0 2.01.25 2.59.747.652.56.98 1.364.98 2.412zm-1.105.028c0-.763-.202-1.348-.606-1.756-.41-.407-1-.61-1.78-.61-.33 0-.61.02-.845.067v4.88c.13.02.365.03.71.03.8 0 1.42-.225 1.856-.67s.656-1.097.656-1.95zm6.965 1c0 .724-.208 1.32-.622 1.784-.434.48-1.01.718-1.727.718-.69 0-1.24-.23-1.65-.69-.41-.458-.61-1.037-.61-1.735 0-.73.21-1.33.636-1.794s.994-.69 1.71-.69c.69 0 1.25.23 1.67.69.4.447.6 1.023.6 1.727zm-1.088.033c0-.43-.094-.8-.28-1.11-.22-.375-.534-.563-.94-.563-.422 0-.742.188-.962.564-.188.31-.28.69-.28 1.138 0 .437.093.81.28 1.12.227.377.543.565.95.565.4 0 .715-.19.94-.574.195-.318.292-.694.292-1.13zm8.943-2.35l-1.475 4.72h-.96l-.61-2.045c-.156-.51-.282-1.02-.38-1.523h-.02c-.09.52-.216 1.026-.378 1.524l-.65 2.045h-.97l-1.387-4.72h1.077l.533 2.24c.13.53.235 1.036.32 1.514h.02c.077-.394.206-.896.388-1.503l.67-2.25h.853l.64 2.203c.156.537.282 1.054.38 1.552h.028c.07-.485.178-1.002.32-1.552l.572-2.202h1.03zm5.433 4.72H67.15v-2.7c0-.83-.316-1.25-.95-1.25a.949.949 0 0 0-.757.345c-.193.23-.29.5-.29.808v2.797h-1.05v-3.37c0-.414-.012-.863-.037-1.35h.92l.05.738h.03c.12-.23.303-.418.542-.57a1.78 1.78 0 0 1 .95-.264c.44 0 .806.144 1.097.43.362.35.543.87.543 1.56v2.823zm2.89 0H70.04V6.56h1.048v6.877zm6.17-2.395c0 .725-.207 1.32-.62 1.785-.435.48-1.01.717-1.728.717-.693 0-1.244-.23-1.654-.69-.41-.457-.615-1.036-.615-1.734 0-.73.22-1.33.64-1.794s1-.698 1.71-.698c.7 0 1.25.23 1.67.687.4.445.6 1.02.6 1.725zm-1.088.034c0-.434-.094-.807-.28-1.118-.22-.376-.534-.564-.94-.564-.422 0-.742.188-.96.564-.19.31-.282.69-.282 1.136 0 .436.094.81.28 1.12.228.376.544.564.952.564.4 0 .713-.19.94-.574.194-.318.29-.694.29-1.13zm6.16 2.362h-.94l-.08-.543h-.028c-.322.432-.78.65-1.377.65-.445 0-.805-.144-1.076-.428-.25-.26-.37-.58-.37-.96 0-.578.24-1.017.72-1.32.48-.305 1.16-.454 2.03-.447v-.09c0-.62-.33-.93-.98-.93a2.19 2.19 0 0 0-1.23.35l-.214-.69c.44-.27.98-.405 1.617-.405 1.232 0 1.85.65 1.85 1.95v1.735c0 .47.023.844.07 1.12zm-1.088-1.62v-.727c-1.156-.02-1.734.295-1.734.95 0 .244.066.43.2.55.136.12.308.184.513.184.23 0 .45-.074.65-.22a.883.883 0 0 0 .381-.743zm7.043 1.62h-.93l-.05-.757h-.028c-.297.574-.803.862-1.514.862-.568 0-1.04-.223-1.416-.67s-.562-1.024-.562-1.735c0-.765.203-1.38.61-1.855.396-.44.88-.66 1.456-.66.64 0 1.08.213 1.33.64h.02v-2.71h1.05v5.608c0 .46.01.882.04 1.27zM87.2 11.45v-.787c0-.14-.01-.25-.03-.33a1.193 1.193 0 0 0-.38-.637 1.032 1.032 0 0 0-.7-.257c-.39 0-.697.15-.922.462-.223.31-.336.71-.336 1.196 0 .466.107.844.322 1.135.227.31.533.466.916.466.344 0 .62-.13.828-.39.202-.24.3-.526.3-.86zm10.048-.41c0 .725-.207 1.32-.62 1.785-.435.48-1.01.718-1.728.718-.69 0-1.242-.23-1.654-.69-.41-.456-.615-1.035-.615-1.733 0-.73.22-1.33.64-1.795s1-.695 1.718-.695c.69 0 1.248.23 1.668.688.4.447.6 1.023.6 1.727zm-1.086.034c0-.432-.094-.805-.28-1.116-.222-.376-.534-.564-.942-.564-.42 0-.74.187-.96.563-.19.31-.282.69-.282 1.138 0 .437.094.81.28 1.12.228.377.544.565.952.565.4 0 .715-.19.94-.575.194-.317.292-.693.292-1.13zm6.72 2.364h-1.046v-2.7c0-.832-.316-1.248-.95-1.248-.312 0-.563.113-.757.342s-.3.5-.3.81v2.795h-1.05V10.07c0-.415-.01-.864-.037-1.35h.92l.05.737h.03c.12-.23.303-.418.54-.57.286-.175.603-.264.95-.264.44 0 .807.143 1.098.428.36.35.54.87.54 1.568v2.822zm7.054-3.93h-1.154v2.29c0 .583.205.874.61.874.19 0 .345-.015.468-.05l.027.797c-.207.074-.48.113-.814.113-.414 0-.736-.125-.97-.377-.233-.253-.35-.677-.35-1.27V9.51h-.688v-.79h.69v-.865l1.026-.31v1.173h1.16v.786zm5.548 3.93h-1.05v-2.68c0-.845-.315-1.268-.948-1.268-.486 0-.818.244-1 .734-.03.104-.05.23-.05.378v2.837h-1.046V6.56h1.047V9.4h.02c.33-.517.803-.775 1.416-.775.434 0 .793.142 1.078.427.36.35.54.88.54 1.58v2.8zm5.723-2.58c0 .188-.014.346-.04.475h-3.142c.014.467.164.82.455 1.068.266.22.61.33 1.03.33.464 0 .888-.07 1.27-.22l.164.73c-.447.194-.973.29-1.582.29-.73 0-1.305-.214-1.72-.644-.42-.43-.626-1.008-.626-1.73 0-.713.193-1.305.582-1.777.406-.504.955-.756 1.648-.756.678 0 1.193.253 1.54.757.282.4.42.896.42 1.484zm-1-.27c.008-.312-.06-.58-.203-.806-.182-.29-.46-.436-.834-.436a.997.997 0 0 0-.834.428c-.174.23-.277.5-.31.817h2.18z" fill="#FFF"/></svg>