<svg xmlns="http://www.w3.org/2000/svg" width="190.9" height="90.2" viewBox="0 0 190.9 90.2"><path fill="#C6B686" d="M138.4 25.8s.6 2.9.7 4.1c.1 1.2-.1 15.4 1.2 17 1.5-.1 1.4-.4 1.4-.4s-1.4-8.9-1.3-10.9c.1-2-.2-9.5-.1-10 .1-.4-.2-1-1.9.2zm-23.6-4.2s-.2-2.2-3.8-2.6c-1.9-.2-1.9-.9-2.6-1.1-.7-.2-1.8-1.8-4.7.8-2.9 2.6-2.3 3.5-2.9 5.4-.6 1.9-.9 3.3-2.7 5.9-1.8 2.6-2.8 8.3.5 11.5 3.3 3.2 4.8 2.8 4.8 2.8l11.4-22.7z"/><path fill="#FDEBD3" d="M133.7 5.5s0 4.2.1 5.1c.1.9.7 3.2.2 3.1s-1.9-.4-1.9-.4.6.8.6 1.2c0 .3-4 3.7-4 3.7l-3.6-1-1.1-7.6 9.7-4.1z"/><path fill="#ffbe6a" d="M103.2 47.1s.2-2 .8-4.2c.6-2.1 1.2-2.6 1.6-3.9.4-1.3 2-8.1 4.2-10.6 2.1-2.5 6.7-8.7 7.5-9.1.8-.4 3-2.3 4.3-1.1 1.3 1.3 5.8 6.7 6.2 4.2 0 0-1.5 9.7-1.8 15.5l.5 9.2h-23.3z"/><path fill="#C6B686" d="M105.5 37.4s8.9 9.1 14.3.1c.6 1.3.8 2.1.8 2.1s-3 4.6-7.6 4.2c-4.6-.4-8.1-4.7-8.1-4.7l.6-1.7zm7.2-13.4s7.4-4 9.1 1.1c.6.5 1.8 3 1.9 3.9.1.9 1.1-1.7 1-3-.1-1.3-2.5-8.6-9.1-5-1.6.9-1.9.9-1.9.9l-1 2.1z"/><path fill="#FDEBD3" d="M143.4 30.7c-.4-.2-.8-.1-1.3-.1h-.6c-.3-.3-1.1-.6-2.1-.4-.3.1-.7.2-1.1.4-.8.5-1.5 1.3-1.8 2.1-.1.3-.9 1.5-1.7 2.8-1.5 2.4-3.8 6.1-6 10.1-.7-1.3-2.5-5.1-2.5-7.7.1-3.1-.8-5.8-1.3-7.3-.1-.3-.2-.6-.2-.8l-.2-.8c-1.2-4.4-1.8-6.6-6.4-6.6h-.5c-1.8 0-2.7.9-3.2 1.5-1.3 2-.1 5 0 5.4.1.2 7.6 16.7 8.3 18.3l.3.6 9.8-.1.1-.8c.3-1.6 1.3-6.2 2.6-8.1l.4-.5c1.5-2.2 2.9-4.1 5-4.5.7-.1 2.8-.5 3-2 .3-.7-.1-1.3-.6-1.5z"/><path fill="#F08451" d="M118.4 15.9s.6-3.7.2-5.3c-.4-1.6-1.4-5.1 2.6-8.3 4-3.2 10.8-3 12.2.7 1.4 3.7-.2 4.5-1.5 5.7-1.3 1.2-4.8 2.7-6.1 2.3.1 1.6.2 4.2 1.8 6.3.4.1.4.4 1.1-.3.6-.7 3.9-3.5 4.2-2.7.4.8 2.7 3.5 1.2 4.5-1.2.8-3.5.6-3.6 1.6-.2 1.1-2.5 3.7-3.3 4-.9.4-1.7.8-3.7-3.1-2-3.9-2.4-3.3-3.6-2.8-1.2.5-2.3 1.7-4.6-.8-.5-.9.2-1.9 1.3-.3.7 1.2 1.8-1.5 1.8-1.5z"/><path fill="#ffbe6a" d="M125.6 32.5c-.1-1.2-1.4-11.5-6.8-11.5h-.1c-4.2.1-5.3.7-5.6 3v.3c-.3 2.2 1.4 6.9 4.3 11.8l.5.8 7.8-3.6-.1-.8z"/><path fill="#75C8DB" d="M34.1 47h156.8s-3.3 16.4-8.1 23c-4.8 6.6-142.9-1.8-142.9-1.8L34.1 47z"/><path fill="#ECF5F7" d="M167.1 86.3c-.4 0-.7 0-1.1-.1l.7-2.9c.6.1 1.1 0 1.5-.5l2.3 1.9c-.9 1-2.1 1.6-3.4 1.6zm10.2.9h3v3h-3zm.7-5.9c-1.1 0-2.3-.1-3.5-.5l.9-2.9c1.1.4 2.4.3 3.8.3h1.4v3h-1.3c-.4.1-.8.1-1.3.1zm8.6 6.3c-1.4 0-2.7-.1-4-.5l.8-2.9c1.5.4 3.3.4 5 .3h1.9v3h-1.8c-.6.1-1.2.1-1.9.1zm-41.3-6.4h6.3v3h-6.3zm16.2-1.4c-1.8 0-3.6-.1-5.3-.6l.9-2.9c2.3.7 5.1.5 7.9.4 1.1-.1 2.3-.1 3.4-.1v3c-1 0-2.1.1-3.2.1-1.3 0-2.5.1-3.7.1zm-118.2.5c-1 0-1.9 0-2.9-.1-1 0-2.1-.1-3.1-.1v-3c1.1 0 2.1 0 3.2.1 3.4.1 6.6.2 9.3-.9l1.2 2.8c-2.5 1-5.1 1.2-7.7 1.2zm-10.5 2.9h7.5v3h-7.5zm.7-8.2c-.8 0-1.8-.1-2.6-.4l.9-2.9c.7.2 1.6.2 2.6.2h.4l.1 3h-.4c-.3.1-.7.1-1 .1zm7.6 0c-.8 0-1.5-.1-2.1-.4l1.2-2.7c.4.2.9.2 1.4.1l.5 3h-1zm-15.3 3.7h5.5v3h-5.5zM0 71.9h19v3H0zm14.7 6h5v3h-5z"/></svg>