<svg xmlns="http://www.w3.org/2000/svg" width="189.4" height="305.3" viewBox="0 0 189.4 305.3"><path fill="#75C8DB" d="M163.1 78.2l-1.2-1.1L120 122l-19.5-58.1 13.3-14.3-1.2-1.1L100 62.2 92.5 40l-1.5.5 7.7 23L58.5 107 39.1 49.9l-1.5.5 19.7 57.9-34.1 36.8 1.1 1.1 34.4-37.1.5-.2-.1-.2 40.2-43.4 33.7 100 1.5-.5-13.9-41.1M114.9 1.2s51.2 14 72.6 51.9c1.6 2.2 2.4 13 1.5 22.4-.7 4.2-.5 11.3-3.2 12.7-2.6 1.4-12.6 6.6-21.3-5.3 0 0 4.6-16.1 2.3-25-2.2-9-10-36.9-51.9-56.7z"/><path fill="#FFF" d="M115.6 1.5s66.9 28.9 48.6 80.9c-1.2 1.3-5.3 5.7-14.6 2.7s-7.7-11.9-6.9-12.9c.8-1 11.8-36.1-27.1-70.7z"/><path fill="#75C8DB" d="M115.4 1.8s29.3 20.1 29.8 54.8c.5 7.5.7 24.9-10.9 24.5-11.6-.4-16-5.8-14.7-10 1.4-4.3 9.6-33.2-4.2-69.3zm-.2-.5S62.7-7 27.7 18.8c-2.4 1.3-7.5 10.8-10.6 19.8-1.1 4.1-4.1 10.5-2.2 12.8 1.8 2.3 8.8 11.2 21.6 3.9 0 0 2.4-16.6 8.1-23.8 5.7-7.1 24.3-29.4 70.6-30.2z"/><path fill="#FFF" d="M114.5 1.3S41.6.2 37 55.2c.6 1.7 2.5 7.3 12.2 8.4 9.7 1.1 11.9-7.6 11.6-8.9-.4-1.3 4-37.8 53.7-53.4z"/><path fill="#75C8DB" d="M114.5 1.6S79.6 7.9 64.9 39.4C61.4 46 54 61.8 64.8 66.2c10.7 4.4 17 1.3 17.5-3.1.4-4.5 4.8-34.3 32.2-61.5z"/><path fill="#FFF" d="M115 1.6c-1.8 1.1-15.2 9.7-26 34.9-9.5 22.3-16.3 34.5 9.6 39.4l1 .2c25.6 6.1 24.4-7.8 24.9-32 .4-27.4-8.2-40.7-9.5-42.5"/><path fill="#C6B686" stroke="#C6B686" stroke-width="2" stroke-miterlimit="10" d="M84.9 116.6s-12.2 7.1-17.4 6.6c-.5 1.5-5.8 17.4 9.8 20.4-.9 2.4-5 5-5.6 5-.5.1 2.4 4.9 7.9 6.4s8.1-2.1 8.1-2.1-1.8-7.5.2-10.7c2.1-3.2 5.4-8.5 5.4-8.5s-3.6.6-1.9-2.3c1.7-2.9 6.2-12.4 1.3-9.7-4.9 2.7-9 7-8.2 2.2 1.1-4.7 4-7.6.4-7.3zm24.5 55.2s3 16.8 2 18.6c3-4.3 10.1-16 11.7-17.6 1.6-1.5 5.4-4 6-6.4.6-2.4 2.9-6.9 8.2-8 1 0 .5 1.3 0 1.9-.5.6-5.1 6.8-5.3 8-.2 1.2-.3.9-1.8 1.6-1.5.7-5.1 3.9-12 14.7-6.9 10.8-8 15-9.3 10.3-1.3-4.7-5.7-18.6-5.7-18.6l6.2-4.5zm-64-8.2l-7.5 12.5s-.7-7-4.3-13.8c-3.6-6.8-5.7-10.9-5.9-12.7-.2-1.8-3.4-10.6-7.1-11-3.7-.3 0 3.9-.1 4.2-.1.3 1.3 2.1 1.5 3.3.2 1.2 2.5 4.1 3.6 4.7 1.1.6 2.2 4.4 2.2 4.9 0 .6 7 16.3 7.7 21.1.7 4.8 2 8.9 3.5 7 1.5-2 7.1-13.8 8.3-13.5-.2.1.7-6-1.9-6.7z"/><path fill="#C6B686" d="M19.9 271.4l1.1.5-.7 2-1.4-.6m59.2 14.5h-1.3l-.1 2.2h1.5"/><path fill="#978970" stroke="#978970" stroke-miterlimit="10" d="M20.1 274.1s1.1-.3.9 1c-.2 1.3-.6 2.5-4.4 2.4-3.8 0-10.6 1.3-11.7 1.9-1.1.5-6.4 1.1-3.5-.8 2.8-1.9 9.8-4 12.6-4.1 2.9-.1 3.8-1 3.8-1s.3-1.1 2.3.6zm56.2 16.6s-.5.6.7 3c1.1 2.4 3.3 9.8 7.6 10.9 1 .5 1.1-.4 1.1-.4s-1.4-4.3-4.1-7.4c-2.7-3.2-3.7-5.1-3.3-5.8.2-.7-2-.3-2-.3z"/><path fill="#FFBE6A" d="M51.4 200.8S39 214.9 38.6 215.2c-.4.3-7.7 6.4-8.2 8.7-.6 2.3-.2 4.3-.7 6.4-.4 2.1-5 20.8-5.2 22.4-.3 1.6-4.2 17.9-4.2 17.9s.2 1.2.8 1c.6-.2 8.6-18.9 8.6-18.9s8.1-16.2 9.1-21.3c.5.4 6.1-4.8 8.1-5.9 1.9-1.1 13.8-8.8 14.5-10.8 1.6 1 7.5 3.9 11 4.8.4 2.2 1.8 7.4 3.2 10 1.4 2.6 6.6 16.3 5.9 19-.7 2.7-.8 3.6-2.2 7.6-1.4 4-2.9 11.6-2.4 16.3.7 6.2 1.1 8.6.5 12.2-.5 3.1-.5 2.9.7 3.5.4.2.4-1.5.6-1.9.2-.5 2.3-10.3 2.8-12.8s3.2-15.7 3.5-16.9c.3-1.2 4.6-13.3 5.4-15.5.8-2.2-.2-5.9-.3-8.5-.1-2.5-1.3-13.9-1.8-18.9-.5-5-2.4-10.8-5.1-12.6-2.6-2-31.8-.2-31.8-.2z"/><path fill="#F08451" d="M84.7 104.6s-5.9-3.2-10.7 2.4c-4.8 5.5-12.3 15.5-13.7 15.7-1.4.2-.6 3 1.4 2.5 2-.4-1.2 8-4.6 10.1-3.4 2-8.6 3.2-7.4 4.1 1.2.9 7.9-1.4 7.2.2-.7 1.6-9.1 9.6-13.3 9.7-4.2.1-8.5-3.7-8.6-1.1 0 2.6 6.3 11.7 13.3 10.3 7-1.4 11.1-9.2 24.6-8.7 2.8-2.2 5.7-6.2 5.7-6.2s-8.2-1-10.5-7.2c-2.4-6.2-.3-10.9-.3-10.9s8.1-.9 16.4-7c.5-.5 2.4-.9 1.5 2-1 2.9-2.1 7.5.1 7.3 2.2-.2 9.4-4.9 9-3.1-.4 1.8-4.8 8.5-4 9.1.8.6 1 2.1 3.4-.1 2.4-2.3 9-10.2 6.1-16.2-2.9-6.1-7-7-9.9-8.3-2.9-1.5-4.7-4.3-5.7-4.6z"/><path fill="#91CDBD" d="M73.7 149.2s-8.1-5.6-28.6 12.4c0 0-1.1.9-.5 3.9.6 3 1.4 10.3 2.9 11.4 1.5 1.1 13.8-11 13.6-9.3-.2 1.7-8.6 20.7-10.7 25.1-2.1 4.4-6.9 8.7-2.1 9.1 4.7.4 9.7-.3 16.7-.6 7.1-.3 13.5.5 18.6.8 5 .3 6.5.1 6.4-2.2-.1-2.4-.8-17.2 2.2-23.8.5-1.5 3.3-.2 4.8 2 1.4 2.1.8 3.7 4.4 1 3.6-2.7 9.1-5.8 9.1-7.2 0-1.4-2.9-6.4-3.8-6.9-.9-.4-2.4-5.4-2.3-6.2.1-.8-5.9-8.9-16.2-5.9-10.4 3-12.1-1.7-14.5-3.6z"/><path fill="#FFF" d="M60.2 170s35.6-13.2 34.8-12.2c-.8.9-36.2 15.5-36.2 15.5l1.4-3.3zm-3.1 7.7s40.9-13.4 38.3-11.6c-2.6 1.8-40.2 15.4-40.2 15.4l1.9-3.8zm-3.8 7.6s39.9-10.2 35.5-8.7c-4.4 1.5-36.8 11.7-36.8 11.7l1.3-3z"/></svg>