<svg xmlns="http://www.w3.org/2000/svg" width="197.2" height="201.8" viewBox="0 0 197.2 201.8"><path fill="#83BD58" d="M190.8 99.8s1.6 1.4 5.7 0c.5-.3.7-.6.7-.6s-1.5-.6-2.5-.7c-1 0-2.7-.3-3.9 1.3z"/><path fill="#83BD58" d="M190.8 99.6s-.9 3.9 3.3 6.3c.3.2.5-.3.5-1s-.8-4.7-3.8-5.3z"/><path fill="#92CBB5" d="M165.1 117.5l-.5-.1c0-.1 1-8.1 8.5-13.1l.3.4c-7.3 4.9-8.3 12.8-8.3 12.8zm9.9-12.9l-.4-.3c.1-.1 6.9-8.4 16.9-4.6l-.2.5c-9.6-3.7-16.2 4.3-16.3 4.4z"/><path fill="#92CBB5" d="M169.4 123.4c0-.1-3-8.9 3.7-18l.4.3c-6.5 8.8-3.6 17.4-3.6 17.5l-.5.2zm15.2-18.3c-4.6-4.5-10.5-.7-10.8-.5l-.3-.4c.1 0 6.5-4.3 11.4.5l-.3.4z"/><path fill="#92CBB5" d="M175.9 103.5l-.3-.4c.1-.1 5.9-5.3 11.2-.9l-.3.4c-5-4-10.6.9-10.6.9z"/><path fill="#c29f54" d="M178.4 110.7c-.3-2.5-1.5-4.9-2.3-6.5-.3-.5-.6-1.2-.7-1.4 0-.5-.2-1.5-1-4.4-.7-2.5-1.5-5.6-1.6-7-.3-2.6-3.1-15.7-3.4-16.4-.2-.7-.9-1.1-1.7-1.1-1.5 0-3.7 1.5-4.1 1.8l-.6.4.2.7c.2.7 2.3 6.8 2.8 7.8 1.3 2.9 2.8 6.4 3 7.3.1.5.3 1.2.5 2.1.4 1.8 1 4.4 1 5.5v.4c.1 1.9.2 4.6 1.4 5.9.7.8 1.2 2 1.8 3.3.1.3.3.6.4.9 1 2.3 2 3.5 2.9 3.5.3 0 .7-.1.9-.4.6-.5.7-1.1.5-2.4zm-54.5-18.3c3.7-7.5 6.5-11.7 7.4-12.1.5-.2 1-.6 1.2-1.1.7-1.9-1.4-5.6-2-6.7l-1-1.6-.8 1.8c-.2.4-4.5 10.1-5.3 12.4-.7 2.2-5 9.8-5.8 11.1-.7 1.2-2 3.6-1.9 6.9v2.6c0 1.8 0 2.4.1 2.7.1.5.7 1.6 1.8 1.6 1.2 0 1.8-1.3 1.9-1.8.9-2.1 1.1-4.1 1.2-5.4v-.5c.1-.5 0-1.3-.1-2.1-.1-.9-.2-2.9 0-3.3 1.1-1 2.4-2.7 3.3-4.5zm32.3 15.1h-.2c-4.2.1-9 2.1-11.5 4.2l-14.6 8.1v.6c0 .5-.1 11.3-.1 12.3V147c0 2.4-.4 6.3-.8 7.6-.6 1.9-.2 4.4 0 5.7 0 .2.1.4.1.5l.1.3c4.1 9.1 10.6 24.1 10.9 25.4.2 1.1.6 1.6 1.4 1.6.9 0 1.4-1 1.5-1.6.2-.8-2.8-14.8-2.8-15-.8-3.4-2.4-10.5-2.4-11.6 0-1.2.7-3.3 1.3-5.3.7-2.2 3.4-13.1 4.7-20.7.5-2.8 1.1-5.7 1.8-8.2 1.5 5.6 2.7 10.6 2.7 11.7 0 .1.7 8.5.7 9.8.1 1.4.6 4.4 1.4 6.7 1.1 3.2 2.8 8.9 2.8 10.9 0 1.3.3 3.2.6 5.1.2 1.6.5 3.3.5 4.4.1 2.2.9 11.1 1.8 13.2.4 1.1 1 1.6 1.8 1.6.7 0 1.2-.5 1.4-1l.1-.2v-.2c0-.1.1-10.4.1-12.5 0-.4.1-1.1.1-1.8.2-3.1.6-8.4 0-13.5-.2-2.1-.6-4.4-.9-6.6-.7-4.6-1.4-9.3-1-12.4 2.7-22.6 3.6-26.9 3.9-27.7.5-.5.7-1.4.5-2.4-.3-.8-1.3-3.3-5.9-3.3z"/><path fill="#0F0F0F" d="M143.7 189.5c-.1-.4-.2-.7-.3-1.1-.1-.3-.1-.7-.3-1.2-.2-.6-.4-1.3-1-1.3-.3 0-.6.1-1.1.4-1.1.6-.8 1.5-.6 2.1.1.3.2.6.3 1 .1.8-1.8 2.1-3.2 2.7-1 .4-4.6 2.4-5.8 3.4-1.2 1-1.5 2.3-1.6 2.3v.2c0 .3.3.7.8.7 1.3 0 4.6-2.4 4.6-2.5.7-.5 2.3-1.4 3.9-2.2 1.5-.7 2.8-1.4 3.5-1.9 1.3-.9 1.3-1.5.9-2.3-.1-.1-.1-.2-.1-.3zm15.6-.1c0-.7-.5-1.2-1.4-1.2-.2 0-.5 0-.7.1-.8.2-.8.5-.9 1.3-.2 1.4-8.2 7.4-9.5 8.1-.7.4-.9.7-1.2 1.1-.2.3-.5.6-.9 1.1-.5.5-.8 1-.6 1.4.1.2.3.4.7.4.4 0 .9-.2 1.6-.3 1.2-.4 11.1-6.2 12.2-7.2 1-1 .8-4.2.7-4.8z"/><path fill="#c29f54" d="M160.2 17.5c-2.3-2.5-4.5-5.5-4.2-10.7l.1-1.6-1.4.6c-.1 0-11.4 4.9-10.8 16.9.1 2.4 1.5 7.7 5.5 8.5 3.5.7 3.3 2.3 3.2 2.8-.2 1-1.3 3-1.7 3.7l-.3.5.3.5c.1.2 1.1 2 2.7 2 .4 0 .8-.1 1.2-.3 1.5-.9 2.2-2.2 2.2-2.3l.3-.6-.4-.5c-.1-.1-2-2.5 0-5 .7-.8 1.4-1.5 2.1-2.1 1.9-1.8 3.7-3.5 3.5-7 .1-.8.3-2.7-2.3-5.4z"/><path fill="#0F0F0F" d="M138.8 48.2s-5.9-8-2.1-16.2c3.9-8.2 5.3-7 4.7-12.4-.6-5.4-1-10 6.7-15.7 7.7-5.7 17.2-5 21 1.5 3.7 6.5 2.8 12.6 1.9 18.9-.5 2.1-.5 3.2.4 4.9.9 1.7 3.3 9.4 2.9 12.5-.3 2.5-3.6 8.9-4.6 7.2 0 0 .3-3.4-.5-5.9-.8-2.5-4-7-6.5-7.7-2.4-.6-5.2 6.1-7.1 2.2-1.9-3.9-.2-5.9 2.5-8.5 2.6-2.5 3.2-3.3 3.3-5.1.1-1.8.1-3.5-1.9-5.9-2-2.4-5-4.3-4.5-11.4-2.1.6-6.3 3.8-8.7 9-2.4 5.1-2 11.7 2.9 13.9 1.1.6 5.2 1.7 4.4 4.8-.8 3.2-2.8 5.5-5.7 6.2-2.8.7-7.8 6.7-8.2 7.3-.4.8-.5.7-.9.4z"/><path fill="#B6D072" d="M152.1 37.5s-10.1 1.5-15.4 16c-5.3 14.5-7.6 16.4-7.5 18.2.1 1.8 1.3 3.9 1.4 6.3.1 2.5 1.4 12 4.1 7.5 2.7-4.5 5.6-26.3 8-28.5.1 0 10.6-16.7 9.4-19.5z"/><path fill="#91CDBD" d="M159.9 70.9s-2.6 8.7-2.6 10.6c0 2 2.8 9.2 3.6 13.8.8 4.6 2.1 13.8 1.9 16.7-.3 3-.8 1.9-1 1.9-.3 0-1.6-.8-2.3-1.1-10.6-3.2-15.2 4-15.2 4-10.6 6.1-15.5 2.6-16.9 1.7-1.4-.9-2.7-.4-2.9-.4-.2 0 0-.4 0-.4 1.9-1.3 6-17.2 8.4-24.6 2.4-7.4 4.7-27 5.9-33.4 1.1-5.6 10.2-18.1 12.4-21.1 0 0 1-1.6 1.3-.6 1.1 3.5 2.3-.7 4.3-.6 3.7.3 3.2-1 5.6-2.4 2.3-1.4 4.3 3.5 4.3 3.5l-6.8 32.4"/><path fill="#B6D072" d="M166.5 38.4s-6.3-3.1-7.1 4.5c-.8 7.6-.5 17.7.1 23.5.6 5.8-.6 13.6.4 13.2 1-.4 6.1-4.3 8.4-4.3 2.3 0 4-.3 3.1-6.3-.9-6.1-1.4-20-1.3-20.8.1-.7-.8-8.6-3.6-9.8z"/><path fill="#83BD58" d="M184.7 104.7s-.5 5 4.8 6c.1-.8.1-6.8-4.8-6z"/><path fill="#B6D072" d="M186 102.6s2.6 2.9 3.1 2.6c.5-.3.3-4.1-2.6-3.4-.3.4-.5.8-.5.8z"/><path fill="#f08451" d="M104.5 173.1s-6.4 1.1-15.4-8.5-13.7-11.4-16.9-12.8c-3.2-1.4-10.4-4.2-18.6.2-8.2 4.4-20.9 5.5-27 2-6.1-3.5-8.5-4.9-8.8-6.8-.3-1.9-.8-4.8-.9-4.5-.2.3-2.3 4.8-2.3 5.1-.1.3-.1.9-.4.6 0 0-5.7-4.4-5.5-3.4.3 1 2.1 4.7 2.1 4.9 0 .2-1 1.5-1.5 2-.4.5-2.3 3.2-2.7 4.4-.4 1.2-1.5 1.5-1.5 1.9 0 .4-.1 1.8 1.3 2.5 1.4.7 3.2 1.6 9.8.3 1.6 0 2.7 1.3 2.7 3.3 0 2-.2 3.3-1.7 4.2-1.5.9-5.2 3.3-7.1 5.5-1.8 2.1-3 4.3-4.1 4.4-1.1.1-5.7 2-5.8 2.7-.1.8-.3 1.1.6 1.2.9.1 4.9-.8 5.4-.8.6.1 1.5-.9 2.7-1.7 1.1-.8 11.1-7.6 14.7-8.3.9-.2 1.7-.3 2.6-.4 0 0 5.3 4.1 6.8 5.3.8.6.1 3.7-2.5 6.2-2.7 2.5 1.5 1.2 1.6 1 .1-.2 4.4-4 4.6-5 .3-.9 1.3-1.1-.9-4.9-.6-.9-1-1.7-1.4-2.2.9.2 2 .3 3.1.6 7.9 1.6 11.4.4 14-.7.9-.4 2-.8 3.4-1.3.9.4 3.4 1.7 2.9 3.8-.6 2.5-2.6 5.3-3.8 6.1-1.2.8-3.3 1.3-3.2 2 .1.7 3.5-.4 4-.1.6.4 1.8-.7 2.1-1.5.3-.8 2.8-3.9 3.7-4.2.9-.3 5.1-2.4 4.5-5.7-.1-.4-.1-.7-.2-1 5 1.4 10.5 3.9 12.3 5.8 1.8 1.9 2.4 3.4 1.8 5.1-.6 1.7-.6 3.2.4 2.8 1-.4 3.7-4.3 3.3-5.2-.3-.9-.6-1.7-1.1-2.4-.6-.7-1.5-1.1-2.5-2.4-1-1.3-7.6-8.3-5-12.4 0 0 .4-1.3 4.3 1.1 3.9 2.5 12.1 9 14.9 10.3 2.8 1.3 10 4.4 13.1 2.4 3-1.8-1.9-1.5-1.9-1.5z"/></svg>