<svg xmlns="http://www.w3.org/2000/svg" width="515.9" height="390.3" viewBox="0 0 515.9 390.3"><path fill="#5FABBF" d="M505.2 23.2c-6.5-9.5-15-14.3-25-14.3-8.5 0-16.2 3.4-20.8 5.5-1.2.6-2.2 1-2.9 1.2-1.8.6-3.8.9-6.1.9-1.8 0-3.6-.2-5.1-.3-1.5-.2-2.8-.3-4-.2-2.3.1-4.7 3.1-7.3 6.7-.3.4-.6.9-1 1.3-.1-.3-.3-.6-.5-.8-.5-.5-1.1-.7-1.9-.7-.6 0-1.1.2-1.2.2l-.2.1c-4.8 2.9-7.3 6.2-7.6 10-.4 4.5 2.6 8.2 4.1 9.8C411.8 55.9 412.3 71 413 76c-2.3 2.6-4.6 4.2-5.7 4.4-.1 0-.1-.1-.2-.1-.3-.2-.5-.3-.7-.6-4.1-4.3-10.2-10.8-51-10.8h-1.7c-25 0-36.2.7-44.7 1.3-4.5.3-7.8.5-11.9.5-2.4 0-5.1-.1-8.2-.2-5.1-.2-13.1-.5-22.6-.5-17.1 0-32.6.6-40.4 1.6-2.7.3-5.8.8-8.9 1.2-9.5 1.3-20.3 2.9-27.1 2.9-1.3 0-2.4-.1-3.2-.2-.8-.1-1.8-.2-2.7-.2-5.6 0-20.3 3-22.1 8.7-.6 2 0 4 1.7 5.2 2 1.4 4.3 1.6 5.8 1.6 1.4 0 2.8-.1 4.3-.3 1.5-.1 3.7-.3 5.8-.3 1.4 0 2.6.1 3.7.2 1.4.2 3.1.3 5 .3 9.9 0 24.5-2.5 29.6-3.8 0 0 .3-.1 1-.1 3.4 0 10.5 1.2 18.8 2.7l.2-1v1c13.1 2.3 29.4 5.1 44.1 5.6 1.4 0 3 .1 4.7.1 7.5 0 16.8-.4 24.9-.8h.3c8.5-.4 17.4-.8 24.7-.8 9 0 13.1.7 14.9 1.2-5.5 6.9-17.2 13.2-27.5 18.8-4.4 2.4-8.5 4.6-12 6.8-3.9 2.4-9.7 5.2-16 8.2l-.1.1c-14.2 6.8-28.9 13.8-33.7 21.9-.1.1-.1.3-.2.4-3.9 2.4-16.1 10.1-27.4 17.7-19.5 13.2-21.9 16.3-22 17.6-5.2 3.1-24.7 14.8-30.1 19-4.6 3.6-41.1 34.5-45 40.1-1.6 2.3-8.2 9.3-13.6 14.9-6.6 6.9-10.4 11-11.6 12.7-1.4 2.2-6.9 9-12.3 15.6l-.1.1c-2.2 2.7-4.4 5.5-6.6 8.1-7 8.7-41.2 35.6-62.9 38.5-16.5 2.2-26.4 7.2-26.4 13.2 0 2.4 1.6 4.3 4 4.6h.6c1.6 0 4.5-.7 10-2.1 3.4-.9 10.5-2.7 12.6-2.7 1.6.3 4.5 1 8.1 1 4.9 0 9.6-1.1 13.9-3.4 1.7-.9 4.4-1.9 7.8-3.2l.3-.1c13-5 34.8-13.4 58-33.5l3.2-3.2c2.6-2.7 5.9-6.1 8.1-7.6 2-1.4 4.3-4.5 8.5-10.4 3.6-5.1 8.2-11.4 11.5-14.3 7.1-6.3 55.8-39.8 69.1-46.3.7 1.1 1.7 1.3 2.5 1.3 1.5 0 3.2-.7 5.4-1.7 1.4-.6 3-1.3 4.7-1.8 4.3-1.4 13.6-6.9 21.2-11.5-5.5 4.5-13.1 11.2-21.5 21l-.1-.1-2.9 2.7c-5.5 5.3-24.1 22.9-30.6 28.5-2.7 2.4-7.5 5.7-12.6 9.2-8.8 6.1-18.7 12.9-24.2 19-3.7 4-8.8 10.2-13.7 16.1l-.2.2c-6.7 8.1-13.6 16.4-17.6 20.3-12.3 12.2-35 32.4-38.4 33.3-.4.1-43.9 14.6-44.5 22-.2 1.9 1 3.7 2.9 4.4.9.3 1.9.5 3.1.5 3.3 0 7.6-1.2 11.8-2.4l.5-.1c3-.9 6.2-1.7 7.8-1.7h.3c1 .1 2.2.2 3.5.2 6 0 15.7-1.6 23-5.9 3.8-2.3 15.4-8.5 25.7-14 16.1-8.6 23.9-12.8 25.5-14 3-2.2 19.7-17.6 26.6-25.6 6.4-7.5 24.1-22.5 30.7-26.9 6.6-4.4 46.2-30 50.3-33 6 0 49.4-22.9 53.6-29.5 3-2.1 11.2-9.1 46.8-43.5 21.3-20.5 44.8-43.6 49.7-49.3l3.5-1.8h.2c3.3 4.1-1.4 28.2-4.3 42.7-2 10.2-3.9 19.8-4.7 27.5-1.5 14.7-.9 31.2-.4 44.5.3 8.1.7 18.2-.1 20-2.4 5.8-8.2 24.8-8.2 33.8 0 3.5-.7 6.6-1.4 9.4-.9 3.6-1.8 7.4-.1 10.5.9 1.7 2.5 2.7 4.1 2.7 1.7 0 3.2-1.3 4.1-2.2 3.7-3.8 8.5-14.7 8.5-21.7 0-5.8 3.9-19.6 6.7-29.7.9-3.1 1.7-6.1 2.4-8.8 3.2-12 7.9-42.3 9.7-62.3.8-8.7 1.7-13.1 3.1-19.8 1.7-8 4.1-19.1 7.6-44 .5-3.3 4.9-32-4.8-43l.9-1.4c2 .4 4.2.6 6.8.6 5.2 0 11.4-.9 18.3-2.5.2 3.1 1.7 5.5 3.2 6.9.7.7 1.7 1 2.9 1 2.3 0 5.1-1.4 7-3.5 1.6-1.8 2.3-4 2-6.1-.3-2.6 8.1-8 14.9-12.3 6.6-4.2 13.4-8.5 16.8-12.5 4.3-5.6 17.5-20.9-2.4-49.8z"/><path fill="#C6B686" d="M478.5 43.4l-.5-2.5-2.6.3c-2.3.2-4.8.4-7.3.4-22.1 0-42.1-9.8-42.3-9.9l-1.7-.9-1.4 1.3c-15.2 13.6-14.3 29.4-13.6 34.2-2.2 2.6-5.4 5.3-7 5.1-.5-.4-.8-.6-1.3-1.1-4-4.3-10.1-10.5-50.2-10.5h-1.7c-25.2 0-36.4.8-44.6 1.4-6.8.5-11.4.8-20.2.3-6.4-.3-14.2-.5-22.5-.5-16.9 0-32.3.6-40.3 1.6-2.7.3-5.7.8-8.9 1.2-9.6 1.3-20.4 2.9-27.2 2.9-1.4 0-2.5-.1-3.4-.2-.8-.1-1.7-.2-2.6-.2-6.4 0-19.7 3.4-21.2 8-.5 1.5 0 3.1 1.4 4.1 1.7 1.3 3.8 1.4 5.2 1.4 1.3 0 2.7-.1 4.2-.3 2.9-.3 6.6-.5 9.8-.1 1.3.2 3 .3 4.9.3 9.8 0 24.3-2.5 29.4-3.8.1 0 .4-.1 1.2-.1 3.5 0 10.7 1.3 19.1 2.7 13.1 2.3 29.4 5.1 44.1 5.6 8.1.2 19-.3 29.5-.7 8.7-.4 17.6-.8 25.1-.8 11.8 0 15.4 1.1 16.5 1.7-5.3 7.4-17.7 14.2-28.6 20.1-4.3 2.4-8.4 4.6-11.9 6.8-4 2.5-9.9 5.3-16.2 8.3-14.1 6.7-28.6 13.7-33.2 21.5-1.3 2.2-1.2 5.4.1 10 6.1 20.3 42.1 74.8 45.5 76.4l.6.4h.7c1.4 0 2.7-.1 48.7-44.4 21.8-21 45.2-44.1 49.8-49.4l3.8-2c.6-.1 1-.1 1.3.3 3.6 4.4-.8 27-4 43.5-2 10.2-3.9 19.7-4.7 27.4-1.5 14.6-.9 31.1-.4 44.4.3 9.1.7 18.5-.1 20.4-2.4 5.7-8.1 24.5-8.1 33.5 0 3.6-.8 6.8-1.4 9.6-.9 3.7-1.6 7-.2 9.7.7 1.2 1.9 2.1 3.2 2.1 1.2 0 2.3-.7 3.4-1.8 3.6-3.6 8.2-14.3 8.2-21 0-5.8 3.8-19.2 6.8-30 .9-3.1 1.7-6.1 2.4-8.7 3.2-11.9 7.9-42.1 9.6-62.1.8-8.8 1.7-13.2 3.2-19.9 1.7-8.1 4.1-19.1 7.6-43.9.6-3.5 4.9-32.5-5.1-42.7l1.6-2.7c1.6.4 4 .7 7.2.7 6.3 0 14-1.3 22.9-3.8l7.2-2.1-5.3-2.6c.8-1.4 2.5-3.5 3.6-4.9 3.7-4.6 6.6-8.3 5.5-11.3 0-.9 1.5-3.8 2.5-5.8 1.9-5.1 5-11.2 3.9-16.9zM56 331.5c12.9-5 34.6-13.4 57.7-33.3.9-.8 1.9-1.9 3.1-3.1 2.7-2.8 6-6.2 8.3-7.7 1.9-1.3 4.2-4.5 8.3-10.2 3.7-5.1 8.2-11.5 11.7-14.5 7.6-6.6 63.3-45.1 71.8-47.5l2-.6.1-2.1c.1-2.7.9-26.6-5.9-35.5l-1.5-2-2.2 1.3c-1 .6-25.2 14.9-31.2 19.6-4.4 3.5-41.1 34.5-44.8 39.9-1.6 2.3-8 9.1-13.7 15-6.4 6.7-10.4 10.9-11.4 12.5-1.4 2.2-7 9.1-12.4 15.7-2.2 2.7-4.4 5.5-6.6 8.1-7 8.7-41.6 35.9-63.5 38.9C6.7 328.7 0 334.1 0 338.4c0 1.9 1.3 3.3 3.1 3.6h.6c1.5 0 4.4-.7 9.8-2.1 4.6-1.2 10.9-2.8 12.9-2.8 1.5.3 4.4 1 8 1 4.8 0 9.3-1.1 13.5-3.2 1.8-1 4.5-2.1 8.1-3.4zm168.9-104.1c-.2.2-23.5 22.3-30.9 28.7-2.8 2.4-7.6 5.7-12.7 9.3-8.7 6-18.6 12.9-24 18.8-3.6 4-8.5 9.9-13.7 16.1-6.8 8.2-13.8 16.6-17.8 20.6-11.1 11-34.8 32.6-39 33.6-.4.1-43.1 14.7-43.7 21.1-.1 1.5.8 2.8 2.3 3.3.8.3 1.7.4 2.8.4 3.1 0 7.4-1.2 11.5-2.4 3.6-1 7.3-2.1 9-1.9 1 .1 2.1.2 3.3.2 5.9 0 15.3-1.5 22.4-5.8 3.8-2.3 14.9-8.2 25.8-14 14.7-7.8 23.8-12.7 25.4-13.9 3-2.2 19.6-17.5 26.4-25.5 6.4-7.5 24.2-22.6 30.9-27.1 6.9-4.6 50.5-33.1 51-33.4l3.1-2-30.2-28.2-1.9 2.1z"/><path fill-rule="evenodd" clip-rule="evenodd" fill="#978970" d="M422 32.5s-11.8-10.2 2.6-18.9c0 0 2.6-.9 2.6 1.9-.1 2.8 5.6-8.4 9.1-8.5 3.5-.1 9.6 1.6 15.5-.4 6-2 30.5-17.5 47.6 7.2 17.1 24.8 10 39.2 2.5 48-7.5 8.7-32.7 19.8-31.9 25.6.8 5.8-7.4 10.3-10.2 7.7-2.8-2.6-4.8-8.6.1-14.5 4.9-5.9 11-23.9 15-34 3.9-10.2-36.1 8.4-52.9-14.1z"/><path fill-rule="evenodd" clip-rule="evenodd" fill="#B0A17B" d="M369.3 98.3c.8.5 1.8.9 2.6 1.6.4.4.5 1.3.3 1.8-.9 2.9-4.5 4.7-6.9 3.7-1.4-.6-2.1-2.4-1.3-3.7.8-1.2 1.4-2.7 3.1-3.1.7-.1 1.3-.2 2.2-.3zm22.5 23c-.1.3-.1.6-.2.8-1.3 1.3-2.4 2.8-4.5 3-1.1.1-2.3-.3-2.8-1.2-.7-1.2-.7-2 .2-3.1.9-1.1 1.6-2.5 3.2-2.7.5-.1 1.1-.1 1.6.1.7.3 1.4.8 2 1.2.7.6.7 1.2.5 1.9z"/><path fill-rule="evenodd" clip-rule="evenodd" fill="#FFBE6A" d="M306.8 225.7s-17.4-31.4-28.5-42.1l2.1.6c1.3.1 2.6 0 3.7-.8 1.7-1.1 1.6-2.3-.1-3.3l-.1-.1c-1.5-.4-3-1-4.5-1.3-1-.2-1.9-.1-2.7.2 1.6-1.5 2.4-3.6 3.1-5.6v-1.1c-.1-1.1-1.1-1.7-2-1-2.4 1.8-3.9 4.1-4.7 6.9-4.2-5.7-8.6-14.6-9.5-22.5-.4-3.3-2.4-16.3-4.9-14.7 0 0-51.1 31.8-50.2 35.6.9 3.8 6.9 26.3 6.4 35.6s4.6 4.3 12 1.9c7.5-2.4 31.3-18.3 31.1-17.1-.2 1.2-14.6 9.3-32.2 30.2-.2 3.2 5.2 15.7 27.5 28.9 2.7 2 57.3-26.6 53.5-30.3z"/></svg>